<?xml version="1.0" standalone="no"?>
<!DOCTYPE svg PUBLIC "-//W3C//DTD SVG 20010904//EN"
 "http://www.w3.org/TR/2001/REC-SVG-20010904/DTD/svg10.dtd">
<svg version="1.0" xmlns="http://www.w3.org/2000/svg"
 width="300.000000pt" height="118.000000pt" viewBox="0 0 300.000000 118.000000"
 preserveAspectRatio="xMidYMid meet">
<metadata>
Created by potrace 1.10, written by Peter Selinger 2001-2011
</metadata>
<g transform="translate(0.000000,118.000000) scale(0.100000,-0.100000)"
fill="#0000ff" stroke="none">
<path d="M456 1144 c-203 -49 -372 -220 -421 -425 -95 -406 269 -781 675 -695
262 55 444 266 458 529 6 119 -7 185 -55 286 -47 99 -161 215 -254 259 -126
60 -275 77 -403 46z m260 -159 c27 -8 58 -21 69 -30 19 -15 19 -15 -5 -6 -87
30 -219 19 -303 -26 -64 -35 -129 -103 -163 -172 -26 -51 -29 -65 -29 -161 0
-95 3 -111 28 -162 83 -169 280 -255 455 -200 34 11 62 18 62 16 0 -13 -110
-56 -169 -66 -238 -41 -465 141 -479 383 -14 241 169 437 409 438 41 1 98 -6
125 -14z m54 -146 c101 -45 160 -138 160 -249 -1 -231 -261 -356 -447 -214
-18 14 -38 35 -44 47 l-12 22 24 -22 c56 -51 154 -68 227 -38 97 41 156 149
132 243 -16 63 -45 108 -89 137 -80 53 -183 50 -261 -6 l-41 -30 22 30 c25 34
89 80 128 91 52 16 154 10 201 -11z"/>
<path d="M1260 851 c0 -6 15 -11 33 -13 l32 -3 3 -97 c1 -54 7 -98 12 -98 5 0
11 44 12 98 l3 97 33 3 c64 6 30 22 -48 22 -44 0 -80 -4 -80 -9z"/>
<path d="M1497 848 c-23 -54 -77 -193 -77 -200 0 -21 29 -5 39 22 9 28 13 30
60 30 46 0 50 -2 60 -30 5 -17 17 -30 27 -30 18 0 20 -5 -34 127 -26 64 -42
93 -53 93 -9 0 -19 -6 -22 -12z m46 -80 c18 -43 15 -48 -30 -48 -38 0 -38 0
-16 58 18 47 23 46 46 -10z"/>
<path d="M1650 750 c0 -91 3 -110 15 -110 11 0 15 12 15 50 0 28 4 50 9 50 4
0 30 -23 56 -51 27 -29 54 -49 63 -47 13 3 4 18 -37 61 l-55 58 49 49 c39 39
45 50 30 50 -11 0 -41 -21 -67 -47 l-48 -47 0 47 c0 35 -4 47 -15 47 -12 0
-15 -19 -15 -110z"/>
<path d="M2436 513 c-12 -12 -6 -33 9 -33 8 0 15 6 15 14 0 17 -14 28 -24 19z"/>
<path d="M2313 493 c-18 -6 -18 -173 0 -197 9 -12 23 -17 47 -14 19 2 33 8 30
13 -2 6 -11 9 -18 7 -26 -6 -42 20 -42 69 0 48 1 49 30 49 20 0 30 5 30 15 0
10 -10 15 -29 15 -24 0 -30 5 -33 23 -2 14 -8 22 -15 20z"/>
<path d="M1297 430 c-22 -18 -27 -30 -27 -66 0 -58 25 -84 80 -84 30 0 40 4
40 16 0 11 -6 14 -20 9 -31 -10 -57 3 -68 33 -16 46 16 94 58 89 8 -1 17 3 20
8 10 20 -56 16 -83 -5z"/>
<path d="M1452 443 c-17 -7 -42 -57 -42 -86 0 -39 36 -77 74 -77 64 0 97 54
75 120 -16 43 -61 62 -107 43z m68 -33 c11 -11 20 -31 20 -45 0 -27 -32 -65
-54 -65 -20 0 -46 39 -46 67 0 23 32 63 50 63 6 0 19 -9 30 -20z"/>
<path d="M1617 443 c-4 -3 -7 -42 -7 -85 0 -63 3 -78 15 -78 12 0 15 14 15 69
0 74 12 91 51 71 16 -9 19 -22 19 -75 0 -51 3 -65 15 -65 24 0 21 131 -3 153
-18 17 -92 24 -105 10z"/>
<path d="M1803 443 c-9 -3 -13 -30 -13 -84 0 -64 3 -79 15 -79 11 0 15 13 17
55 2 78 2 79 13 87 36 27 65 -10 65 -83 0 -46 3 -59 15 -59 25 0 21 124 -5
150 -19 19 -76 26 -107 13z"/>
<path d="M1990 430 c-14 -14 -20 -33 -20 -65 0 -61 26 -87 83 -83 23 2 41 7
39 13 -1 5 -15 8 -31 7 -30 -3 -61 19 -61 44 0 10 14 14 55 14 52 0 55 1 55
25 0 34 -33 65 -70 65 -17 0 -39 -9 -50 -20z m74 -16 c25 -25 19 -34 -24 -34
-22 0 -40 4 -40 9 0 12 29 41 40 41 5 0 16 -7 24 -16z"/>
<path d="M2175 426 c-32 -32 -35 -96 -5 -126 25 -25 100 -29 100 -5 0 11 -7
14 -25 9 -35 -9 -65 20 -65 61 0 38 21 59 58 60 38 0 33 19 -5 23 -24 2 -39
-3 -58 -22z"/>
<path d="M2430 365 c0 -69 3 -85 15 -85 12 0 15 16 15 85 0 69 -3 85 -15 85
-12 0 -15 -16 -15 -85z"/>
<path d="M2530 430 c-30 -30 -28 -113 2 -134 32 -23 81 -20 104 5 29 32 26
105 -5 130 -30 25 -76 24 -101 -1z m80 -20 c24 -24 26 -57 4 -88 -19 -28 -38
-28 -65 -1 -24 24 -20 75 8 97 23 16 30 15 53 -8z"/>
<path d="M2715 442 c-5 -4 -10 -42 -10 -85 0 -64 3 -77 15 -75 11 3 15 18 15
68 0 63 7 80 32 80 28 0 43 -32 43 -91 0 -46 3 -59 15 -59 25 0 21 124 -5 150
-20 20 -84 28 -105 12z"/>
<path d="M2898 439 c-32 -18 -22 -56 23 -84 48 -31 46 -50 -4 -50 -49 0 -52
-19 -5 -23 52 -4 80 13 76 46 -2 20 -13 32 -41 45 -49 23 -48 53 1 51 21 -1
32 3 32 12 0 17 -56 19 -82 3z"/>
</g>
</svg>
